# xmcd
#
# Track frame offsets: 
#        150
#        14295
#        33932
#        48641
#        69232
#        86381
#        101787
#        120326
#        135313
#        145153
#        161197
#
# Disc length: 2415 seconds
#
# Revision: 0
# Processed by: cddbd v1.5.2PL0 Copyright (c) Steve Scherf et al.
# Submitted via: ExactAudioCopy v0.95a3
#
DISCID=89096d0b
DTITLE=Grinderman - GrinderMan
DYEAR=2007
DGENRE=Dark Blues
TTITLE0=Get It On
TTITLE1=No Pussy Blues
TTITLE2=Electric Alice
TTITLE3=Grinderman
TTITLE4=Depth Charge Ethel
TTITLE5=Go Tell The Women
TTITLE6=(I Don't Need You) To Set Me Free
TTITLE7=Honey Bee (Let's Fly To Mars)
TTITLE8=Man In The Moon
TTITLE9=When My Love Comes Down
TTITLE10=Love Bomb
EXTD=
EXTT0=
EXTT1=
EXTT2=
EXTT3=
EXTT4=
EXTT5=
EXTT6=
EXTT7=
EXTT8=
EXTT9=
EXTT10=
PLAYORDER=
